<?xml version="1.0" encoding="UTF-8" ?>
<!DOCTYPE svg PUBLIC "-//W3C//DTD SVG 1.1//EN" "http://www.w3.org/Graphics/SVG/1.1/DTD/svg11.dtd">
<svg width="1702pt" height="663pt" viewBox="0 0 1702 663" version="1.1" xmlns="http://www.w3.org/2000/svg">
<g id="a7a8f9aff">
<path fill="#7a8f9a" opacity="1.00" d=" M 976.10 0.00 L 979.19 0.00 C 980.81 0.65 981.64 2.24 981.49 3.95 C 981.51 160.05 981.50 316.15 981.50 472.25 C 981.49 475.75 981.49 479.25 981.50 482.75 C 981.49 540.84 981.52 598.94 981.49 657.03 C 982.17 661.37 974.90 661.09 975.02 657.10 C 974.97 598.98 975.02 540.87 975.00 482.75 C 974.99 479.25 974.99 475.75 975.00 472.25 C 975.01 315.81 974.99 159.36 975.01 2.92 C 975.08 1.86 975.44 0.89 976.10 0.00 Z" />
</g>
<g id="a000000ff">
<path fill="#000000" opacity="1.00" d=" M 269.67 6.17 C 269.83 6.19 270.15 6.23 270.31 6.24 C 323.19 157.13 376.03 308.05 428.80 458.99 C 400.83 459.01 372.86 459.00 344.89 458.99 C 335.58 433.47 326.11 408.02 316.76 382.51 C 276.57 382.50 236.38 382.48 196.19 382.52 C 193.03 390.31 190.01 398.15 186.97 405.99 C 178.24 429.12 166.26 450.82 154.07 472.26 C 367.18 472.24 580.30 472.25 793.41 472.25 C 793.82 465.02 794.07 457.78 794.30 450.54 C 767.11 460.77 736.80 462.29 708.59 455.58 C 700.15 453.38 691.59 450.73 684.42 445.60 C 674.95 438.99 667.98 429.45 662.45 419.44 C 654.39 405.05 650.75 388.68 648.77 372.44 C 645.89 347.56 646.25 322.27 650.43 297.56 C 653.17 281.62 657.98 265.68 667.25 252.24 C 675.12 240.31 685.58 229.32 699.20 224.17 C 713.57 219.10 728.87 217.26 744.04 216.98 C 761.25 217.00 777.97 222.54 793.14 230.37 C 794.25 226.41 794.70 222.32 795.50 218.29 C 820.08 218.20 844.66 218.27 869.24 218.25 C 869.27 302.92 869.23 387.58 869.26 472.24 C 904.50 472.27 939.75 472.25 975.00 472.25 C 974.99 475.75 974.99 479.25 975.00 482.75 C 939.78 482.75 904.56 482.73 869.34 482.76 C 868.11 502.12 863.94 522.23 852.08 538.05 C 841.50 552.32 825.27 561.22 808.61 566.51 C 775.21 577.10 739.41 577.54 704.94 572.85 C 680.87 568.67 657.58 561.11 634.04 554.78 C 590.73 542.23 546.11 533.74 501.04 531.22 C 478.37 529.73 455.66 532.26 433.26 535.68 C 391.66 542.37 350.73 552.80 310.44 565.05 C 308.84 562.02 307.23 559.00 305.63 555.97 C 334.91 533.95 367.99 516.98 402.82 505.63 C 428.67 497.31 455.78 492.61 482.98 492.80 C 536.30 494.20 589.88 499.02 641.66 512.31 C 657.74 515.47 673.37 520.58 689.53 523.29 C 710.57 525.78 731.94 525.57 752.95 522.82 C 764.79 520.99 777.11 517.46 786.07 509.11 C 789.12 506.10 792.23 502.50 792.48 498.02 C 792.71 492.93 792.89 487.84 793.04 482.75 C 578.01 482.75 362.98 482.75 147.95 482.75 C 138.56 498.72 129.02 514.59 119.33 530.37 C 88.47 579.52 50.17 623.79 7.48 663.00 L 7.48 663.00 C 5.29 660.24 2.42 658.18 0.00 655.66 L 0.00 655.35 C 16.41 632.34 33.40 609.75 49.78 586.72 C 61.66 570.02 71.69 552.09 80.76 533.73 C 89.22 517.03 97.33 500.14 104.33 482.77 C 80.47 482.72 56.62 482.77 32.76 482.74 C 32.74 479.25 32.74 475.75 32.76 472.26 C 58.07 472.23 83.38 472.27 108.69 472.24 C 114.74 457.32 120.51 442.28 126.20 427.22 C 152.55 356.97 176.91 286.00 200.98 214.95 C 224.39 145.53 247.22 75.91 269.67 6.17 M 270.38 38.46 C 235.45 146.03 199.86 253.40 162.02 359.99 C 145.25 406.63 128.48 453.32 109.01 498.92 C 100.11 519.25 90.19 539.13 79.71 558.69 C 71.09 574.84 60.60 589.87 50.03 604.79 C 72.38 579.45 93.07 552.58 110.90 523.85 C 121.18 507.07 131.31 490.22 141.22 473.23 C 153.74 451.53 166.22 429.68 175.47 406.35 C 179.99 394.89 184.28 383.34 189.10 372.00 C 234.11 372.01 279.11 371.99 324.12 372.00 C 333.47 397.44 342.99 422.82 352.15 448.33 C 372.74 448.73 393.36 448.39 413.96 448.50 C 366.10 311.82 318.33 175.11 270.38 38.46 M 701.46 234.68 C 689.03 240.08 680.24 251.09 673.35 262.38 C 666.06 274.48 662.63 288.45 660.33 302.26 C 657.60 319.98 656.73 337.98 657.87 355.86 C 659.12 374.67 661.51 393.98 670.01 411.05 C 676.41 423.67 685.42 436.27 699.11 441.54 C 721.34 449.89 745.89 450.92 769.13 446.70 C 781.97 444.57 794.10 439.59 805.54 433.51 C 804.64 455.02 803.87 476.53 803.00 498.03 C 802.78 505.76 798.16 512.63 792.58 517.66 C 782.15 526.79 768.45 531.05 754.99 533.16 C 740.76 535.11 726.37 535.77 712.02 535.45 C 700.99 535.00 689.89 534.56 679.10 532.08 C 665.51 529.03 652.12 525.17 638.48 522.41 C 590.03 509.96 539.94 505.19 490.06 503.50 C 449.58 501.73 409.33 511.96 372.67 528.66 C 361.77 533.44 351.43 539.33 340.91 544.85 C 344.55 544.53 347.99 543.23 351.53 542.41 C 386.51 533.37 421.94 525.57 457.93 521.88 C 474.91 520.08 492.03 519.79 509.06 521.19 C 537.13 523.09 565.00 527.42 592.50 533.34 C 613.91 537.79 634.85 544.12 655.91 549.93 C 673.78 554.81 691.59 560.25 709.96 562.93 C 737.02 566.19 764.73 566.38 791.42 560.25 C 808.28 556.39 825.44 550.34 838.08 538.05 C 849.90 526.50 855.34 510.14 857.60 494.13 C 859.48 483.84 858.52 473.36 858.75 462.98 C 858.78 384.94 858.68 306.89 858.80 228.85 C 840.66 228.60 822.51 228.83 804.37 228.74 C 803.34 232.41 803.76 236.91 800.77 239.74 C 797.77 242.60 793.03 242.22 789.59 240.40 C 777.83 234.40 765.31 229.35 752.07 228.02 C 744.03 226.93 735.90 227.79 727.87 228.52 C 718.89 229.62 709.90 231.35 701.46 234.68 Z" />
<path fill="#000000" opacity="1.00" d=" M 921.56 126.76 C 934.55 125.04 948.99 127.93 958.33 137.70 C 973.46 152.85 974.31 179.40 960.75 195.82 C 954.80 203.45 945.72 208.29 936.20 209.66 C 924.86 211.39 912.49 209.75 903.06 202.85 C 893.37 195.63 886.95 184.13 886.13 172.05 C 885.03 159.47 889.73 146.58 898.69 137.67 C 904.70 131.45 913.05 127.87 921.56 126.76 M 920.49 137.64 C 907.47 139.92 897.87 152.24 896.71 165.07 C 894.79 179.68 904.54 195.47 919.20 198.80 C 929.92 201.09 942.54 199.62 950.50 191.39 C 962.37 179.64 962.99 158.65 951.79 146.25 C 944.28 137.31 931.38 135.54 920.49 137.64 Z" />
<path fill="#000000" opacity="1.00" d=" M 257.69 214.75 C 262.27 203.81 266.50 192.72 271.29 181.87 C 284.88 233.07 298.60 284.24 312.08 335.46 C 277.23 336.33 242.36 336.64 207.51 337.53 C 224.15 296.57 240.99 255.69 257.69 214.75 M 223.27 326.76 C 248.33 326.01 273.43 325.87 298.50 325.24 C 288.69 288.47 279.00 251.67 269.12 214.92 C 253.72 252.15 238.63 289.51 223.27 326.76 Z" />
<path fill="#000000" opacity="1.00" d=" M 504.54 218.74 C 524.94 215.78 545.91 216.58 566.03 221.02 C 583.75 225.09 601.19 233.76 612.31 248.56 C 625.05 265.33 630.99 286.26 633.00 306.98 C 634.50 322.88 634.31 338.97 631.90 354.77 C 585.40 354.73 538.90 354.74 492.40 354.77 C 494.46 367.19 498.41 379.21 502.90 390.94 C 505.91 399.11 510.46 407.08 517.66 412.26 C 525.83 418.05 536.29 419.55 546.08 418.86 C 557.09 418.52 568.12 417.46 578.82 414.80 C 589.22 412.21 598.86 407.32 608.16 402.12 C 616.58 397.56 622.36 389.72 629.31 383.36 C 624.71 402.66 619.88 421.91 615.23 441.20 C 614.50 445.31 610.49 447.46 607.05 449.07 C 587.50 457.41 566.05 460.08 544.95 460.33 C 525.51 460.86 505.81 459.82 486.99 454.59 C 469.78 449.95 453.10 441.38 441.36 427.69 C 429.15 413.46 423.17 395.01 420.30 376.75 C 416.92 353.96 417.24 330.66 420.57 307.89 C 423.96 286.34 431.26 264.53 446.21 248.17 C 461.11 231.47 482.65 221.93 504.54 218.74 M 459.69 249.74 C 444.44 262.96 436.34 282.44 432.40 301.84 C 428.03 323.86 427.40 346.60 429.84 368.89 C 432.19 387.73 437.36 407.26 450.25 421.76 C 461.62 434.39 477.74 441.64 494.03 445.51 C 511.99 449.89 530.61 450.34 549.00 449.73 C 565.16 449.27 581.45 447.23 596.74 441.72 C 599.54 440.61 602.60 439.85 605.04 438.03 C 607.33 429.60 609.20 421.06 611.34 412.59 C 604.38 416.10 597.46 419.74 590.13 422.42 C 574.04 428.03 556.84 429.25 539.93 429.52 C 528.18 429.52 516.26 425.59 507.51 417.58 C 501.30 412.01 496.83 404.71 493.89 396.95 C 487.31 380.06 481.62 362.49 480.81 344.24 C 528.10 344.18 575.41 344.40 622.70 344.13 C 624.10 327.04 623.66 309.69 620.23 292.85 C 617.04 277.53 610.88 262.43 600.28 250.71 C 591.96 241.86 580.80 236.16 569.24 232.79 C 553.30 228.26 536.53 226.98 520.02 227.76 C 498.39 228.78 476.06 234.96 459.69 249.74 Z" />
<path fill="#000000" opacity="1.00" d=" M 891.02 218.24 C 915.80 218.21 940.59 218.35 965.37 218.17 C 965.67 256.44 965.42 294.73 965.50 333.00 C 965.45 374.60 965.61 416.20 965.42 457.79 C 940.62 457.70 915.82 457.77 891.02 457.76 C 890.99 377.92 890.99 298.08 891.02 218.24 M 901.52 447.25 C 919.34 447.24 937.17 447.26 954.99 447.25 C 955.00 374.42 955.00 301.58 954.99 228.75 C 937.17 228.74 919.34 228.75 901.51 228.75 C 901.49 301.58 901.48 374.42 901.52 447.25 Z" />
<path fill="#000000" opacity="1.00" d=" M 524.98 246.53 C 541.58 244.08 560.01 247.75 572.44 259.62 C 583.08 269.93 588.07 284.61 590.05 298.98 C 591.35 307.46 591.25 316.04 591.59 324.58 C 554.83 324.97 518.03 324.65 481.26 324.74 C 481.03 305.55 482.29 285.23 492.27 268.31 C 499.09 256.51 511.53 248.44 524.98 246.53 M 503.54 270.52 C 494.38 283.08 492.52 299.16 491.74 314.24 C 521.42 314.26 551.10 314.25 580.78 314.25 C 580.20 298.91 577.76 282.47 567.77 270.20 C 558.60 258.96 543.01 255.23 529.10 256.63 C 519.15 257.55 509.47 262.35 503.54 270.52 Z" />
<path fill="#000000" opacity="1.00" d=" M 732.91 253.78 C 742.04 249.86 752.07 248.68 761.93 248.54 C 775.83 250.39 788.86 256.54 800.00 264.93 C 802.53 266.93 805.50 269.33 805.21 272.94 C 805.32 319.98 805.18 367.03 805.28 414.08 C 800.20 419.47 793.16 422.39 786.51 425.34 C 770.21 431.01 751.85 432.27 735.38 426.51 C 724.20 422.68 714.60 414.37 709.55 403.64 C 699.74 383.65 697.81 360.94 697.48 338.99 C 698.21 320.68 699.37 302.03 705.35 284.56 C 709.94 271.19 719.63 259.20 732.91 253.78 M 725.40 271.44 C 715.56 281.41 712.47 295.72 710.42 309.09 C 706.94 334.31 706.84 360.42 713.66 385.11 C 716.80 395.63 721.49 406.78 731.23 412.80 C 744.18 420.74 760.39 420.99 774.85 417.77 C 781.99 416.49 788.40 412.94 794.65 409.44 C 794.87 364.39 794.69 319.32 794.74 274.27 C 784.94 266.66 773.45 260.80 761.06 259.12 C 748.36 259.20 734.57 261.97 725.40 271.44 Z" />
<path fill="#000000" opacity="1.00" d=" M 981.50 472.25 C 1221.67 472.26 1461.83 472.25 1702.00 472.25 L 1702.00 482.75 C 1461.83 482.75 1221.67 482.74 981.50 482.75 C 981.49 479.25 981.49 475.75 981.50 472.25 Z" />
</g>
<g id="ae91d25ff">
<path fill="#e91d25" opacity="1.00" d=" M 270.38 38.46 C 318.33 175.11 366.10 311.82 413.96 448.50 C 393.36 448.39 372.74 448.73 352.15 448.33 C 342.99 422.82 333.47 397.44 324.12 372.00 C 279.11 371.99 234.11 372.01 189.10 372.00 C 184.28 383.34 179.99 394.89 175.47 406.35 C 166.22 429.68 153.74 451.53 141.22 473.23 C 131.31 490.22 121.18 507.07 110.90 523.85 C 93.07 552.58 72.38 579.45 50.03 604.79 C 60.60 589.87 71.09 574.84 79.71 558.69 C 90.19 539.13 100.11 519.25 109.01 498.92 C 128.48 453.32 145.25 406.63 162.02 359.99 C 199.86 253.40 235.45 146.03 270.38 38.46 M 257.69 214.75 C 240.99 255.69 224.15 296.57 207.51 337.53 C 242.36 336.64 277.23 336.33 312.08 335.46 C 298.60 284.24 284.88 233.07 271.29 181.87 C 266.50 192.72 262.27 203.81 257.69 214.75 Z" />
</g>
<g id="a435f7fff">
<path fill="#435f7f" opacity="1.00" d=" M 1437.25 124.26 C 1462.24 124.24 1487.23 124.27 1512.22 124.24 C 1512.28 157.20 1512.26 190.15 1512.23 223.11 C 1531.51 215.76 1552.42 213.94 1572.90 214.59 C 1587.07 215.31 1601.37 217.76 1614.36 223.66 C 1630.43 231.37 1641.28 246.72 1648.41 262.59 C 1658.58 286.98 1659.37 313.95 1658.98 340.00 C 1658.22 360.70 1655.95 381.74 1648.16 401.10 C 1640.57 419.22 1628.32 436.51 1610.36 445.47 C 1589.13 455.39 1565.03 458.15 1541.88 455.70 C 1531.42 454.80 1521.40 451.28 1512.24 446.24 C 1512.24 449.24 1512.24 452.24 1512.24 455.24 C 1487.23 455.22 1462.22 455.33 1437.22 455.19 C 1437.30 344.88 1437.23 234.57 1437.25 124.26 M 1447.76 134.77 C 1447.74 179.14 1447.75 223.51 1447.76 267.88 C 1447.73 270.57 1447.74 273.27 1447.76 275.97 C 1447.72 278.61 1447.72 281.26 1447.77 283.91 C 1447.71 286.56 1447.73 289.21 1447.78 291.86 C 1447.68 295.23 1447.75 298.60 1447.80 301.97 C 1447.64 305.26 1447.72 308.56 1447.91 311.85 C 1447.55 332.24 1447.85 352.66 1447.75 373.06 C 1447.91 396.94 1447.42 420.85 1448.01 444.71 C 1465.90 444.80 1483.80 444.80 1501.69 444.72 C 1502.01 437.80 1501.35 430.87 1502.05 423.98 C 1506.42 427.59 1509.70 432.45 1514.63 435.38 C 1522.28 439.58 1530.24 443.61 1539.02 444.69 C 1560.50 447.77 1583.06 445.76 1603.08 437.09 C 1619.86 430.00 1630.94 414.17 1638.00 397.98 C 1645.68 379.36 1647.83 359.00 1648.45 339.03 C 1648.31 327.36 1648.91 315.60 1647.43 304.00 C 1647.26 301.32 1646.90 298.65 1646.41 296.02 C 1646.28 294.12 1645.82 292.28 1645.58 290.41 C 1645.13 288.25 1644.69 286.11 1644.15 283.98 C 1643.57 281.72 1643.06 279.45 1642.56 277.18 L 1642.06 277.20 C 1641.84 276.19 1641.70 275.18 1641.61 274.17 C 1640.81 272.23 1640.04 270.29 1639.31 268.33 C 1633.09 253.76 1623.39 239.30 1608.49 232.60 C 1596.31 227.50 1583.07 225.40 1569.93 225.01 C 1553.78 224.73 1537.40 226.04 1521.93 230.92 C 1514.84 233.01 1508.37 236.61 1501.77 239.84 C 1501.72 204.82 1501.76 169.80 1501.75 134.77 C 1483.75 134.73 1465.76 134.74 1447.76 134.77 Z" />
<path fill="#435f7f" opacity="1.00" d=" M 1032.22 221.23 C 1049.21 215.28 1067.32 213.34 1085.23 212.83 C 1095.51 211.87 1105.83 212.38 1116.13 212.86 C 1126.85 213.52 1137.60 214.65 1148.06 217.23 C 1157.12 219.44 1166.27 221.55 1174.87 225.23 C 1180.06 242.94 1185.26 260.64 1190.40 278.37 C 1185.46 275.45 1180.80 272.06 1175.79 269.27 C 1168.75 265.94 1161.35 263.43 1153.95 261.04 C 1140.39 256.82 1126.11 255.80 1112.00 255.27 C 1100.67 255.15 1089.17 255.05 1078.10 257.84 C 1072.36 259.17 1065.87 261.67 1063.68 267.68 C 1062.03 272.39 1060.47 278.56 1064.20 282.69 C 1068.36 287.21 1074.36 289.38 1080.07 291.19 C 1093.19 294.91 1106.36 298.42 1119.62 301.59 C 1127.52 303.56 1135.53 305.17 1143.23 307.88 C 1155.33 312.10 1166.90 318.10 1176.88 326.18 C 1185.38 333.29 1191.07 343.37 1193.57 354.11 C 1196.59 366.13 1196.03 378.69 1194.34 390.87 C 1192.55 402.83 1188.63 414.67 1181.52 424.56 C 1172.25 437.41 1157.78 445.43 1143.05 450.46 C 1119.26 458.25 1093.85 459.61 1069.00 458.31 C 1056.95 457.66 1044.91 456.34 1033.13 453.67 C 1022.59 451.31 1011.99 449.00 1001.88 445.15 C 997.74 426.51 993.54 407.89 989.49 389.24 C 995.81 393.43 1001.77 398.24 1008.69 401.46 C 1020.54 406.89 1032.60 412.28 1045.52 414.58 C 1060.63 417.34 1076.18 418.14 1091.45 416.20 C 1098.78 414.99 1106.77 413.63 1112.36 408.29 C 1118.82 402.06 1120.60 392.62 1120.76 383.99 C 1120.64 375.60 1118.62 365.95 1111.00 361.15 C 1103.01 356.57 1093.98 354.26 1085.18 351.78 C 1069.19 347.32 1052.56 345.42 1036.79 340.14 C 1025.25 336.37 1013.80 331.48 1004.41 323.63 C 993.80 314.23 989.33 299.82 988.37 286.05 C 986.78 270.99 990.45 255.10 999.85 243.05 C 1007.98 232.53 1019.89 225.68 1032.22 221.23 M 1068.91 224.32 C 1052.17 226.08 1034.98 229.42 1020.56 238.53 C 1009.96 245.07 1002.04 255.90 999.71 268.21 C 999.15 270.91 998.87 273.66 998.59 276.40 C 998.20 280.04 998.93 283.67 999.00 287.32 C 999.39 291.61 1000.40 295.80 1001.67 299.91 C 1002.38 302.57 1003.59 305.04 1004.83 307.49 C 1008.21 314.18 1014.58 318.57 1020.99 322.06 C 1034.62 329.49 1049.83 333.35 1064.97 336.33 C 1080.76 339.66 1096.68 343.07 1111.57 349.46 C 1116.84 351.69 1121.66 355.25 1124.80 360.09 C 1130.48 368.48 1131.86 379.05 1131.05 388.95 C 1130.13 398.94 1127.01 409.43 1119.31 416.33 C 1110.86 424.17 1098.92 425.99 1087.91 427.21 C 1070.49 428.64 1052.81 427.39 1035.83 423.23 C 1025.24 420.69 1015.48 415.77 1005.35 411.96 C 1006.94 419.89 1008.82 427.77 1010.56 435.67 C 1010.84 437.64 1013.14 437.78 1014.65 438.34 C 1025.14 441.14 1035.72 443.67 1046.43 445.50 C 1060.82 447.74 1075.43 448.35 1089.99 448.21 C 1108.52 447.65 1127.31 445.44 1144.66 438.60 C 1155.22 434.06 1165.91 428.25 1172.64 418.61 C 1178.44 410.96 1181.57 401.64 1183.43 392.33 C 1185.62 379.04 1186.45 365.02 1181.97 352.10 C 1179.71 344.85 1175.15 338.50 1169.28 333.74 C 1158.65 325.28 1146.09 319.49 1133.09 315.76 C 1123.08 313.04 1112.91 310.95 1102.93 308.12 C 1101.51 307.84 1100.10 307.20 1098.67 307.49 C 1089.36 304.61 1079.86 302.14 1070.59 299.32 C 1064.53 296.53 1058.43 293.15 1054.59 287.51 L 1054.32 287.55 C 1052.46 284.11 1051.41 280.33 1051.26 276.42 C 1051.47 273.67 1051.82 270.93 1052.33 268.22 C 1054.14 261.12 1058.58 254.43 1065.31 251.20 C 1073.58 247.23 1082.83 245.85 1091.90 245.13 C 1107.57 244.25 1123.37 244.72 1138.93 246.93 C 1150.67 248.48 1162.00 252.20 1172.97 256.58 C 1170.77 248.72 1168.54 240.87 1166.08 233.10 C 1161.12 231.49 1156.12 230.06 1151.06 228.82 C 1124.32 221.70 1096.28 222.06 1068.91 224.32 Z" />
<path fill="#435f7f" opacity="1.00" d=" M 1208.25 215.76 C 1233.25 215.74 1258.25 215.75 1283.24 215.76 C 1283.26 272.52 1283.25 329.28 1283.25 386.04 C 1283.28 392.27 1285.55 398.50 1289.89 403.03 C 1296.57 410.57 1307.01 413.91 1316.91 413.14 C 1326.39 412.53 1336.39 410.97 1344.23 405.21 C 1348.87 401.16 1352.89 396.39 1356.27 391.24 C 1357.38 389.33 1358.78 387.37 1358.75 385.06 C 1358.75 328.62 1358.74 272.19 1358.76 215.76 C 1378.25 215.74 1397.75 215.74 1417.24 215.76 C 1417.26 295.59 1417.26 375.41 1417.24 455.24 C 1397.75 455.26 1378.25 455.26 1358.76 455.24 C 1358.74 449.58 1358.74 443.91 1358.76 438.24 C 1351.87 441.88 1344.62 444.76 1337.37 447.56 C 1323.81 452.62 1309.34 454.57 1294.98 455.56 C 1282.92 456.11 1270.68 456.93 1258.82 454.17 C 1244.96 451.31 1231.81 444.22 1222.69 433.28 C 1215.92 425.24 1211.71 415.26 1209.81 404.98 C 1207.57 394.11 1208.41 382.98 1208.25 371.98 C 1208.25 319.90 1208.25 267.83 1208.25 215.76 M 1218.79 226.24 C 1218.69 240.24 1218.77 254.23 1218.75 268.22 C 1218.73 270.68 1218.74 273.14 1218.76 275.61 C 1218.72 278.11 1218.72 280.61 1218.77 283.12 C 1218.70 286.08 1218.74 289.05 1218.78 292.02 C 1218.69 295.29 1218.75 298.56 1218.79 301.83 C 1218.62 305.17 1218.70 308.52 1219.00 311.86 C 1218.40 335.23 1218.94 358.66 1218.74 382.05 C 1218.51 394.19 1219.39 406.88 1225.19 417.80 C 1232.18 431.99 1246.80 441.19 1262.05 444.10 C 1272.53 446.40 1283.30 445.43 1293.92 445.08 C 1307.90 444.14 1322.02 442.27 1335.13 437.10 C 1342.37 434.27 1349.62 431.30 1356.38 427.43 C 1361.09 424.88 1364.47 420.55 1369.06 417.83 C 1369.54 426.78 1368.98 435.76 1369.35 444.72 C 1381.79 444.77 1394.24 444.84 1406.69 444.70 C 1406.77 399.73 1406.88 354.75 1406.65 309.78 C 1406.87 304.46 1407.03 299.12 1406.78 293.79 C 1406.78 288.62 1407.26 283.37 1406.72 278.25 C 1406.90 260.93 1406.66 243.59 1406.74 226.26 C 1394.24 226.25 1381.75 226.24 1369.26 226.26 C 1369.36 243.41 1369.04 260.56 1369.33 277.70 C 1368.75 283.02 1369.18 288.39 1369.22 293.72 C 1368.97 298.71 1369.06 303.72 1369.34 308.71 C 1369.09 334.46 1369.31 360.22 1369.25 385.97 C 1369.08 391.49 1365.81 396.28 1362.71 400.64 C 1357.92 406.81 1352.75 413.08 1345.69 416.74 C 1337.21 421.55 1327.33 422.95 1317.75 423.61 C 1307.20 424.31 1296.17 421.82 1287.68 415.33 C 1278.96 409.03 1273.18 398.74 1272.81 387.95 C 1272.61 361.56 1272.94 335.15 1272.67 308.77 C 1272.92 303.75 1273.00 298.71 1272.77 293.69 C 1272.75 288.69 1273.40 283.57 1272.64 278.64 C 1273.00 261.19 1272.61 243.72 1272.74 226.26 C 1254.76 226.24 1236.78 226.26 1218.79 226.24 Z" />
<path fill="#435f7f" opacity="1.00" d=" M 1521.14 248.26 C 1538.63 243.05 1558.01 242.10 1575.20 248.96 C 1584.58 252.68 1592.56 259.76 1597.14 268.78 C 1598.04 270.60 1598.93 272.45 1599.72 274.34 C 1600.09 275.31 1600.48 276.29 1600.87 277.28 C 1601.66 279.46 1602.39 281.67 1603.06 283.90 C 1603.81 286.53 1604.48 289.18 1605.06 291.86 C 1605.48 293.94 1605.79 296.03 1606.12 298.14 C 1606.73 301.81 1607.31 305.50 1607.63 309.22 C 1609.07 331.71 1608.77 354.59 1603.62 376.63 C 1599.94 391.87 1592.91 407.54 1579.16 416.17 C 1563.23 425.85 1542.58 427.86 1525.27 420.73 C 1518.68 418.16 1512.85 414.01 1507.32 409.69 C 1504.68 407.47 1501.52 404.85 1501.78 401.03 C 1501.70 370.33 1501.81 339.61 1501.74 308.91 C 1501.86 303.85 1501.93 298.80 1501.82 293.74 C 1501.87 287.99 1502.14 282.23 1501.71 276.49 C 1502.00 272.32 1501.79 268.14 1501.73 263.97 C 1501.48 261.45 1502.07 258.78 1504.14 257.13 C 1509.08 253.02 1515.11 250.38 1521.14 248.26 M 1512.22 264.18 C 1512.32 309.36 1512.18 354.55 1512.29 399.73 C 1522.46 409.44 1536.69 415.86 1550.97 414.26 C 1559.67 413.46 1568.54 411.12 1575.58 405.71 C 1582.06 400.91 1586.46 393.83 1589.43 386.43 C 1594.30 374.21 1596.25 361.08 1597.27 348.04 C 1598.27 333.10 1598.30 318.05 1596.30 303.19 C 1594.79 292.44 1592.22 281.61 1586.83 272.09 C 1582.44 264.31 1574.46 259.12 1565.94 256.91 C 1557.15 254.68 1547.91 253.82 1538.93 255.29 C 1529.52 256.32 1520.18 258.94 1512.22 264.18 Z" />
</g>
<g id="ab9c8e7ff">
<path fill="#b9c8e7" opacity="1.00" d=" M 1447.76 134.77 C 1465.76 134.74 1483.75 134.73 1501.75 134.77 C 1501.76 169.80 1501.72 204.82 1501.77 239.84 C 1508.37 236.61 1514.84 233.01 1521.93 230.92 C 1537.40 226.04 1553.78 224.73 1569.93 225.01 C 1583.07 225.40 1596.31 227.50 1608.49 232.60 C 1623.39 239.30 1633.09 253.76 1639.31 268.33 C 1625.26 268.86 1611.17 267.99 1597.14 268.78 C 1592.56 259.76 1584.58 252.68 1575.20 248.96 C 1558.01 242.10 1538.63 243.05 1521.14 248.26 C 1515.11 250.38 1509.08 253.02 1504.14 257.13 C 1502.07 258.78 1501.48 261.45 1501.73 263.97 C 1501.79 268.14 1502.00 272.32 1501.71 276.49 L 1501.62 277.45 L 1501.19 275.66 C 1501.19 273.20 1501.48 270.73 1500.85 268.32 C 1483.15 267.96 1465.43 268.83 1447.76 267.88 C 1447.75 223.51 1447.74 179.14 1447.76 134.77 Z" />
<path fill="#b9c8e7" opacity="1.00" d=" M 1068.91 224.32 C 1096.28 222.06 1124.32 221.70 1151.06 228.82 C 1156.12 230.06 1161.12 231.49 1166.08 233.10 C 1168.54 240.87 1170.77 248.72 1172.97 256.58 C 1162.00 252.20 1150.67 248.48 1138.93 246.93 C 1123.37 244.72 1107.57 244.25 1091.90 245.13 C 1082.83 245.85 1073.58 247.23 1065.31 251.20 C 1058.58 254.43 1054.14 261.12 1052.33 268.22 C 1034.79 268.30 1017.25 268.35 999.71 268.21 C 1002.04 255.90 1009.96 245.07 1020.56 238.53 C 1034.98 229.42 1052.17 226.08 1068.91 224.32 Z" />
<path fill="#b9c8e7" opacity="1.00" d=" M 1218.79 226.24 C 1236.78 226.26 1254.76 226.24 1272.74 226.26 C 1272.61 243.72 1273.00 261.19 1272.64 278.64 L 1272.35 277.81 C 1272.22 277.28 1271.96 276.22 1271.82 275.69 C 1272.15 273.24 1272.62 270.74 1271.90 268.32 C 1254.18 268.20 1236.47 268.39 1218.75 268.22 C 1218.77 254.23 1218.69 240.24 1218.79 226.24 Z" />
<path fill="#b9c8e7" opacity="1.00" d=" M 1369.26 226.26 C 1381.75 226.24 1394.24 226.25 1406.74 226.26 C 1406.66 243.59 1406.90 260.93 1406.72 278.25 L 1406.43 278.25 C 1394.08 277.86 1381.74 278.52 1369.38 278.34 L 1369.33 277.70 C 1369.04 260.56 1369.36 243.41 1369.26 226.26 M 1370.37 269.33 C 1369.28 270.40 1369.17 272.68 1370.15 273.87 C 1371.59 274.76 1373.41 274.25 1375.05 274.41 C 1384.05 274.36 1393.06 274.36 1402.06 274.42 C 1403.48 274.26 1405.70 274.87 1406.29 273.02 C 1406.54 271.31 1406.31 268.65 1404.03 268.70 C 1394.35 268.44 1384.66 268.72 1374.98 268.57 C 1373.47 268.82 1371.50 268.09 1370.37 269.33 Z" />
</g>
<g id="afcd406ff">
<path fill="#fcd406" opacity="1.00" d=" M 920.49 137.64 C 931.38 135.54 944.28 137.31 951.79 146.25 C 962.99 158.65 962.37 179.64 950.50 191.39 C 942.54 199.62 929.92 201.09 919.20 198.80 C 904.54 195.47 894.79 179.68 896.71 165.07 C 897.87 152.24 907.47 139.92 920.49 137.64 Z" />
<path fill="#fcd406" opacity="1.00" d=" M 901.52 447.25 C 901.48 374.42 901.49 301.58 901.51 228.75 C 919.34 228.75 937.17 228.74 954.99 228.75 C 955.00 301.58 955.00 374.42 954.99 447.25 C 937.17 447.26 919.34 447.24 901.52 447.25 Z" />
</g>
<g id="a3fa548ff">
<path fill="#3fa548" opacity="1.00" d=" M 459.69 249.74 C 476.06 234.96 498.39 228.78 520.02 227.76 C 536.53 226.98 553.30 228.26 569.24 232.79 C 580.80 236.16 591.96 241.86 600.28 250.71 C 610.88 262.43 617.04 277.53 620.23 292.85 C 623.66 309.69 624.10 327.04 622.70 344.13 C 575.41 344.40 528.10 344.18 480.81 344.24 C 481.62 362.49 487.31 380.06 493.89 396.95 C 496.83 404.71 501.30 412.01 507.51 417.58 C 516.26 425.59 528.18 429.52 539.93 429.52 C 556.84 429.25 574.04 428.03 590.13 422.42 C 597.46 419.74 604.38 416.10 611.34 412.59 C 609.20 421.06 607.33 429.60 605.04 438.03 C 602.60 439.85 599.54 440.61 596.74 441.72 C 581.45 447.23 565.16 449.27 549.00 449.73 C 530.61 450.34 511.99 449.89 494.03 445.51 C 477.74 441.64 461.62 434.39 450.25 421.76 C 437.36 407.26 432.19 387.73 429.84 368.89 C 427.40 346.60 428.03 323.86 432.40 301.84 C 436.34 282.44 444.44 262.96 459.69 249.74 M 524.98 246.53 C 511.53 248.44 499.09 256.51 492.27 268.31 C 482.29 285.23 481.03 305.55 481.26 324.74 C 518.03 324.65 554.83 324.97 591.59 324.58 C 591.25 316.04 591.35 307.46 590.05 298.98 C 588.07 284.61 583.08 269.93 572.44 259.62 C 560.01 247.75 541.58 244.08 524.98 246.53 Z" />
</g>
<g id="a768fc8ff">
<path fill="#768fc8" opacity="1.00" d=" M 701.46 234.68 C 709.90 231.35 718.89 229.62 727.87 228.52 C 735.90 227.79 744.03 226.93 752.07 228.02 C 765.31 229.35 777.83 234.40 789.59 240.40 C 793.03 242.22 797.77 242.60 800.77 239.74 C 803.76 236.91 803.34 232.41 804.37 228.74 C 822.51 228.83 840.66 228.60 858.80 228.85 C 858.68 306.89 858.78 384.94 858.75 462.98 C 858.52 473.36 859.48 483.84 857.60 494.13 C 855.34 510.14 849.90 526.50 838.08 538.05 C 825.44 550.34 808.28 556.39 791.42 560.25 C 764.73 566.38 737.02 566.19 709.96 562.93 C 691.59 560.25 673.78 554.81 655.91 549.93 C 634.85 544.12 613.91 537.79 592.50 533.34 C 565.00 527.42 537.13 523.09 509.06 521.19 C 492.03 519.79 474.91 520.08 457.93 521.88 C 421.94 525.57 386.51 533.37 351.53 542.41 C 347.99 543.23 344.55 544.53 340.91 544.85 C 351.43 539.33 361.77 533.44 372.67 528.66 C 409.33 511.96 449.58 501.73 490.06 503.50 C 539.94 505.19 590.03 509.96 638.48 522.41 C 652.12 525.17 665.51 529.03 679.10 532.08 C 689.89 534.56 700.99 535.00 712.02 535.45 C 726.37 535.77 740.76 535.11 754.99 533.16 C 768.45 531.05 782.15 526.79 792.58 517.66 C 798.16 512.63 802.78 505.76 803.00 498.03 C 803.87 476.53 804.64 455.02 805.54 433.51 C 794.10 439.59 781.97 444.57 769.13 446.70 C 745.89 450.92 721.34 449.89 699.11 441.54 C 685.42 436.27 676.41 423.67 670.01 411.05 C 661.51 393.98 659.12 374.67 657.87 355.86 C 656.73 337.98 657.60 319.98 660.33 302.26 C 662.63 288.45 666.06 274.48 673.35 262.38 C 680.24 251.09 689.03 240.08 701.46 234.68 M 732.91 253.78 C 719.63 259.20 709.94 271.19 705.35 284.56 C 699.37 302.03 698.21 320.68 697.48 338.99 C 697.81 360.94 699.74 383.65 709.55 403.64 C 714.60 414.37 724.20 422.68 735.38 426.51 C 751.85 432.27 770.21 431.01 786.51 425.34 C 793.16 422.39 800.20 419.47 805.28 414.08 C 805.18 367.03 805.32 319.98 805.21 272.94 C 805.50 269.33 802.53 266.93 800.00 264.93 C 788.86 256.54 775.83 250.39 761.93 248.54 C 752.07 248.68 742.04 249.86 732.91 253.78 Z" />
</g>
<g id="adae3f4ff">
<path fill="#dae3f4" opacity="1.00" d=" M 999.71 268.21 C 1017.25 268.35 1034.79 268.30 1052.33 268.22 C 1051.82 270.93 1051.47 273.67 1051.26 276.42 C 1033.70 276.45 1016.14 276.50 998.59 276.40 C 998.87 273.66 999.15 270.91 999.71 268.21 Z" />
<path fill="#dae3f4" opacity="1.00" d=" M 1218.75 268.22 C 1236.47 268.39 1254.18 268.20 1271.90 268.32 C 1272.62 270.74 1272.15 273.24 1271.82 275.69 C 1254.14 275.44 1236.44 275.59 1218.76 275.61 C 1218.74 273.14 1218.73 270.68 1218.75 268.22 Z" />
<path fill="#dae3f4" opacity="1.00" d=" M 1447.76 267.88 C 1465.43 268.83 1483.15 267.96 1500.85 268.32 C 1501.48 270.73 1501.19 273.20 1501.19 275.66 C 1488.80 275.46 1476.40 275.62 1464.00 275.57 C 1458.58 275.66 1453.14 275.24 1447.76 275.97 C 1447.74 273.27 1447.73 270.57 1447.76 267.88 Z" />
</g>
<g id="ae2eaf6ff">
<path fill="#e2eaf6" opacity="1.00" d=" M 1597.14 268.78 C 1611.17 267.99 1625.26 268.86 1639.31 268.33 C 1640.04 270.29 1640.81 272.23 1641.61 274.17 C 1634.73 274.24 1627.87 273.54 1621.00 273.89 C 1613.91 274.51 1606.80 273.38 1599.72 274.34 C 1598.93 272.45 1598.04 270.60 1597.14 268.78 Z" />
<path fill="#e2eaf6" opacity="1.00" d=" M 1370.37 269.33 C 1371.50 268.09 1373.47 268.82 1374.98 268.57 C 1384.66 268.72 1394.35 268.44 1404.03 268.70 C 1406.31 268.65 1406.54 271.31 1406.29 273.02 C 1405.70 274.87 1403.48 274.26 1402.06 274.42 C 1393.06 274.36 1384.05 274.36 1375.05 274.41 C 1373.41 274.25 1371.59 274.76 1370.15 273.87 C 1369.17 272.68 1369.28 270.40 1370.37 269.33 Z" />
</g>
<g id="ac1cde8ff">
<path fill="#c1cde8" opacity="1.00" d=" M 1599.72 274.34 C 1606.80 273.38 1613.91 274.51 1621.00 273.89 C 1627.87 273.54 1634.73 274.24 1641.61 274.17 C 1641.70 275.18 1641.84 276.19 1642.06 277.20 C 1628.33 277.43 1614.59 277.29 1600.87 277.28 C 1600.48 276.29 1600.09 275.31 1599.72 274.34 Z" />
</g>
<g id="a98acd6ff">
<path fill="#98acd6" opacity="1.00" d=" M 998.59 276.40 C 1016.14 276.50 1033.70 276.45 1051.26 276.42 C 1051.41 280.33 1052.46 284.11 1054.32 287.55 C 1048.93 288.59 1043.43 288.11 1037.98 288.25 C 1027.65 288.29 1017.32 288.18 1007.00 288.32 C 1004.29 288.36 1001.62 287.89 999.00 287.32 C 998.93 283.67 998.20 280.04 998.59 276.40 Z" />
</g>
<g id="a9fb1dbff">
<path fill="#9fb1db" opacity="1.00" d=" M 1218.76 275.61 C 1236.44 275.59 1254.14 275.44 1271.82 275.69 C 1271.96 276.22 1272.22 277.28 1272.35 277.81 C 1272.33 279.58 1272.30 281.35 1272.32 283.13 C 1254.47 283.20 1236.62 283.25 1218.77 283.12 C 1218.72 280.61 1218.72 278.11 1218.76 275.61 Z" />
<path fill="#9fb1db" opacity="1.00" d=" M 1447.76 275.97 C 1453.14 275.24 1458.58 275.66 1464.00 275.57 C 1476.40 275.62 1488.80 275.46 1501.19 275.66 L 1501.62 277.45 C 1501.42 279.59 1501.27 281.73 1501.29 283.88 C 1483.45 283.80 1465.61 283.62 1447.77 283.91 C 1447.72 281.26 1447.72 278.61 1447.76 275.97 Z" />
</g>
<g id="a7991c0ff">
<path fill="#7991c0" opacity="1.00" d=" M 1501.62 277.45 L 1501.71 276.49 C 1502.14 282.23 1501.87 287.99 1501.82 293.74 C 1501.56 296.42 1501.00 299.05 1500.56 301.70 C 1482.97 302.08 1465.38 301.50 1447.80 301.97 C 1447.75 298.60 1447.68 295.23 1447.78 291.86 C 1461.52 291.69 1475.26 292.06 1489.00 291.89 C 1492.91 292.10 1496.85 292.22 1500.76 291.70 C 1501.08 289.10 1501.31 286.49 1501.29 283.88 C 1501.27 281.73 1501.42 279.59 1501.62 277.45 Z" />
<path fill="#7991c0" opacity="1.00" d=" M 1272.35 277.81 L 1272.64 278.64 C 1273.40 283.57 1272.75 288.69 1272.77 293.69 C 1272.54 296.40 1272.04 299.07 1271.62 301.75 C 1254.01 301.86 1236.40 301.76 1218.79 301.83 C 1218.75 298.56 1218.69 295.29 1218.78 292.02 C 1236.42 291.50 1254.10 292.07 1271.73 291.78 C 1272.15 288.92 1272.38 286.03 1272.32 283.13 C 1272.30 281.35 1272.33 279.58 1272.35 277.81 Z" />
</g>
<g id="a9dafd9ff">
<path fill="#9dafd9" opacity="1.00" d=" M 1600.87 277.28 C 1614.59 277.29 1628.33 277.43 1642.06 277.20 L 1642.56 277.18 C 1643.06 279.45 1643.57 281.72 1644.15 283.98 C 1630.45 283.99 1616.76 283.88 1603.06 283.90 C 1602.39 281.67 1601.66 279.46 1600.87 277.28 Z" />
</g>
<g id="a7b93c1ff">
<path fill="#7b93c1" opacity="1.00" d=" M 1369.33 277.70 L 1369.38 278.34 C 1369.72 282.43 1369.62 286.55 1370.28 290.61 C 1382.07 290.76 1393.86 290.61 1405.66 290.64 C 1406.37 286.54 1406.37 282.39 1406.43 278.25 L 1406.72 278.25 C 1407.26 283.37 1406.78 288.62 1406.78 293.79 C 1406.54 295.86 1406.09 297.89 1405.72 299.93 C 1399.84 300.68 1393.91 300.14 1388.01 300.30 C 1382.10 300.13 1376.16 300.70 1370.30 299.85 C 1369.88 297.81 1369.44 295.78 1369.22 293.72 C 1369.18 288.39 1368.75 283.02 1369.33 277.70 Z" />
<path fill="#7b93c1" opacity="1.00" d=" M 1645.58 290.41 C 1645.82 292.28 1646.28 294.12 1646.41 296.02 C 1646.12 297.27 1645.83 298.52 1645.55 299.77 C 1634.07 300.66 1622.51 299.60 1611.01 300.13 C 1609.06 300.35 1607.43 299.45 1606.12 298.14 C 1605.79 296.03 1605.48 293.94 1605.06 291.86 C 1617.38 291.63 1629.72 291.91 1642.04 291.81 C 1643.40 291.96 1644.54 291.24 1645.58 290.41 Z" />
</g>
<g id="a93a7d3ff">
<path fill="#93a7d3" opacity="1.00" d=" M 1369.38 278.34 C 1381.74 278.52 1394.08 277.86 1406.43 278.25 C 1406.37 282.39 1406.37 286.54 1405.66 290.64 C 1393.86 290.61 1382.07 290.76 1370.28 290.61 C 1369.62 286.55 1369.72 282.43 1369.38 278.34 Z" />
</g>
<g id="a8ca2ceff">
<path fill="#8ca2ce" opacity="1.00" d=" M 1218.77 283.12 C 1236.62 283.25 1254.47 283.20 1272.32 283.13 C 1272.38 286.03 1272.15 288.92 1271.73 291.78 C 1254.10 292.07 1236.42 291.50 1218.78 292.02 C 1218.74 289.05 1218.70 286.08 1218.77 283.12 Z" />
<path fill="#8ca2ce" opacity="1.00" d=" M 1447.77 283.91 C 1465.61 283.62 1483.45 283.80 1501.29 283.88 C 1501.31 286.49 1501.08 289.10 1500.76 291.70 C 1496.85 292.22 1492.91 292.10 1489.00 291.89 C 1475.26 292.06 1461.52 291.69 1447.78 291.86 C 1447.73 289.21 1447.71 286.56 1447.77 283.91 Z" />
<path fill="#8ca2ce" opacity="1.00" d=" M 1603.06 283.90 C 1616.76 283.88 1630.45 283.99 1644.15 283.98 C 1644.69 286.11 1645.13 288.25 1645.58 290.41 C 1644.54 291.24 1643.40 291.96 1642.04 291.81 C 1629.72 291.91 1617.38 291.63 1605.06 291.86 C 1604.48 289.18 1603.81 286.53 1603.06 283.90 Z" />
</g>
<g id="a7d95c3ff">
<path fill="#7d95c3" opacity="1.00" d=" M 999.00 287.32 C 1001.62 287.89 1004.29 288.36 1007.00 288.32 C 1017.32 288.18 1027.65 288.29 1037.98 288.25 C 1043.43 288.11 1048.93 288.59 1054.32 287.55 L 1054.59 287.51 C 1058.43 293.15 1064.53 296.53 1070.59 299.32 C 1064.75 300.13 1058.85 299.67 1052.99 299.77 C 1035.88 299.85 1018.77 299.61 1001.67 299.91 C 1000.40 295.80 999.39 291.61 999.00 287.32 Z" />
</g>
<g id="a6383b2ff">
<path fill="#6383b2" opacity="1.00" d=" M 1271.62 301.75 C 1272.04 299.07 1272.54 296.40 1272.77 293.69 C 1273.00 298.71 1272.92 303.75 1272.67 308.77 C 1272.31 309.73 1271.94 310.69 1271.57 311.65 C 1254.05 312.03 1236.52 311.49 1219.00 311.86 C 1218.70 308.52 1218.62 305.17 1218.79 301.83 C 1236.40 301.76 1254.01 301.86 1271.62 301.75 Z" />
<path fill="#6383b2" opacity="1.00" d=" M 1369.22 293.72 C 1369.44 295.78 1369.88 297.81 1370.30 299.85 C 1376.16 300.70 1382.10 300.13 1388.01 300.30 C 1393.91 300.14 1399.84 300.68 1405.72 299.93 C 1406.09 297.89 1406.54 295.86 1406.78 293.79 C 1407.03 299.12 1406.87 304.46 1406.65 309.78 C 1406.26 310.69 1405.87 311.59 1405.47 312.49 C 1393.84 312.81 1382.20 312.63 1370.58 312.59 C 1370.15 311.29 1369.71 310.01 1369.34 308.71 C 1369.06 303.72 1368.97 298.71 1369.22 293.72 Z" />
<path fill="#6383b2" opacity="1.00" d=" M 1500.56 301.70 C 1501.00 299.05 1501.56 296.42 1501.82 293.74 C 1501.93 298.80 1501.86 303.85 1501.74 308.91 C 1501.33 309.81 1500.91 310.72 1500.49 311.62 C 1482.97 312.02 1465.43 311.56 1447.91 311.85 C 1447.72 308.56 1447.64 305.26 1447.80 301.97 C 1465.38 301.50 1482.97 302.08 1500.56 301.70 Z" />
</g>
<g id="a6885b5ff">
<path fill="#6885b5" opacity="1.00" d=" M 1646.41 296.02 C 1646.90 298.65 1647.26 301.32 1647.43 304.00 C 1647.21 305.61 1646.99 307.22 1646.79 308.84 C 1633.79 309.88 1620.67 309.15 1607.63 309.22 C 1607.31 305.50 1606.73 301.81 1606.12 298.14 C 1607.43 299.45 1609.06 300.35 1611.01 300.13 C 1622.51 299.60 1634.07 300.66 1645.55 299.77 C 1645.83 298.52 1646.12 297.27 1646.41 296.02 Z" />
<path fill="#6885b5" opacity="1.00" d=" M 1070.59 299.32 C 1079.86 302.14 1089.36 304.61 1098.67 307.49 C 1093.91 309.01 1088.89 308.33 1084.00 308.42 C 1064.34 308.45 1044.67 308.42 1025.01 308.41 C 1018.28 308.20 1011.43 309.15 1004.83 307.49 C 1003.59 305.04 1002.38 302.57 1001.67 299.91 C 1018.77 299.61 1035.88 299.85 1052.99 299.77 C 1058.85 299.67 1064.75 300.13 1070.59 299.32 Z" />
</g>
<g id="a4c75a6ff">
<path fill="#4c75a6" opacity="1.00" d=" M 1647.43 304.00 C 1648.91 315.60 1648.31 327.36 1648.45 339.03 C 1647.83 359.00 1645.68 379.36 1638.00 397.98 C 1630.94 414.17 1619.86 430.00 1603.08 437.09 C 1583.06 445.76 1560.50 447.77 1539.02 444.69 C 1530.24 443.61 1522.28 439.58 1514.63 435.38 C 1509.70 432.45 1506.42 427.59 1502.05 423.98 C 1501.35 430.87 1502.01 437.80 1501.69 444.72 C 1483.80 444.80 1465.90 444.80 1448.01 444.71 C 1447.42 420.85 1447.91 396.94 1447.75 373.06 C 1447.85 352.66 1447.55 332.24 1447.91 311.85 C 1465.43 311.56 1482.97 312.02 1500.49 311.62 C 1500.91 310.72 1501.33 309.81 1501.74 308.91 C 1501.81 339.61 1501.70 370.33 1501.78 401.03 C 1501.52 404.85 1504.68 407.47 1507.32 409.69 C 1512.85 414.01 1518.68 418.16 1525.27 420.73 C 1542.58 427.86 1563.23 425.85 1579.16 416.17 C 1592.91 407.54 1599.94 391.87 1603.62 376.63 C 1608.77 354.59 1609.07 331.71 1607.63 309.22 C 1620.67 309.15 1633.79 309.88 1646.79 308.84 C 1646.99 307.22 1647.21 305.61 1647.43 304.00 Z" />
<path fill="#4c75a6" opacity="1.00" d=" M 1004.83 307.49 C 1011.43 309.15 1018.28 308.20 1025.01 308.41 C 1044.67 308.42 1064.34 308.45 1084.00 308.42 C 1088.89 308.33 1093.91 309.01 1098.67 307.49 C 1100.10 307.20 1101.51 307.84 1102.93 308.12 C 1112.91 310.95 1123.08 313.04 1133.09 315.76 C 1146.09 319.49 1158.65 325.28 1169.28 333.74 C 1175.15 338.50 1179.71 344.85 1181.97 352.10 C 1186.45 365.02 1185.62 379.04 1183.43 392.33 C 1181.57 401.64 1178.44 410.96 1172.64 418.61 C 1165.91 428.25 1155.22 434.06 1144.66 438.60 C 1127.31 445.44 1108.52 447.65 1089.99 448.21 C 1075.43 448.35 1060.82 447.74 1046.43 445.50 C 1035.72 443.67 1025.14 441.14 1014.65 438.34 C 1013.14 437.78 1010.84 437.64 1010.56 435.67 C 1008.82 427.77 1006.94 419.89 1005.35 411.96 C 1015.48 415.77 1025.24 420.69 1035.83 423.23 C 1052.81 427.39 1070.49 428.64 1087.91 427.21 C 1098.92 425.99 1110.86 424.17 1119.31 416.33 C 1127.01 409.43 1130.13 398.94 1131.05 388.95 C 1131.86 379.05 1130.48 368.48 1124.80 360.09 C 1121.66 355.25 1116.84 351.69 1111.57 349.46 C 1096.68 343.07 1080.76 339.66 1064.97 336.33 C 1049.83 333.35 1034.62 329.49 1020.99 322.06 C 1014.58 318.57 1008.21 314.18 1004.83 307.49 Z" />
<path fill="#4c75a6" opacity="1.00" d=" M 1271.57 311.65 C 1271.94 310.69 1272.31 309.73 1272.67 308.77 C 1272.94 335.15 1272.61 361.56 1272.81 387.95 C 1273.18 398.74 1278.96 409.03 1287.68 415.33 C 1296.17 421.82 1307.20 424.31 1317.75 423.61 C 1327.33 422.95 1337.21 421.55 1345.69 416.74 C 1352.75 413.08 1357.92 406.81 1362.71 400.64 C 1365.81 396.28 1369.08 391.49 1369.25 385.97 C 1369.31 360.22 1369.09 334.46 1369.34 308.71 C 1369.71 310.01 1370.15 311.29 1370.58 312.59 C 1382.20 312.63 1393.84 312.81 1405.47 312.49 C 1405.87 311.59 1406.26 310.69 1406.65 309.78 C 1406.88 354.75 1406.77 399.73 1406.69 444.70 C 1394.24 444.84 1381.79 444.77 1369.35 444.72 C 1368.98 435.76 1369.54 426.78 1369.06 417.83 C 1364.47 420.55 1361.09 424.88 1356.38 427.43 C 1349.62 431.30 1342.37 434.27 1335.13 437.10 C 1322.02 442.27 1307.90 444.14 1293.92 445.08 C 1283.30 445.43 1272.53 446.40 1262.05 444.10 C 1246.80 441.19 1232.18 431.99 1225.19 417.80 C 1219.39 406.88 1218.51 394.19 1218.74 382.05 C 1218.94 358.66 1218.40 335.23 1219.00 311.86 C 1236.52 311.49 1254.05 312.03 1271.57 311.65 Z" />
</g>
</svg>
