<svg xmlns="http://www.w3.org/2000/svg" xmlns:xlink="http://www.w3.org/1999/xlink" width="64" height="64" xmlns:v="https://vecta.io/nano"><defs><linearGradient id="A" xlink:href="#K"><stop offset="0" stop-opacity=".486"/><stop offset="1" stop-color="#5e5e5e" stop-opacity=".216"/></linearGradient><radialGradient id="B" gradientTransform="matrix(1.1743548,-2.9620861e-2,1.3511579e-2,0.5356829,-5.9207362,14.816771)" cx="29.511" cy="23.535" fx="29.511" fy="23.535" r="26.856" xlink:href="#K"><stop offset="0" stop-color="#fff"/><stop offset=".333" stop-color="#fff"/><stop offset="1" stop-color="gray"/></radialGradient><linearGradient id="C" x1="15.568" y1="5.25" x2="43.591" y2="47.773" xlink:href="#K"><stop offset="0" stop-color="#f46363"/><stop offset="1" stop-color="#9f0000"/></linearGradient><clipPath id="D"><path d="M 1.5261376,29.127791 C 1.5261376,29.127791 18.797327,17.997929 29.810162,17.775758 C 40.822997,17.553587 67.282499,30.508444 67.282499,30.508444 C 67.282499,30.508444 40.555197,41.353398 29.41067,41.323556 C 18.346041,41.293928 1.5261376,29.127791 1.5261376,29.127791 z" fill="none" stroke="url(#E)" stroke-width="2" stroke-linejoin="miter" stroke-miterlimit="4" stroke-dasharray="none" stroke-opacity="1"/></clipPath><linearGradient id="E" x1="26.703" y1="20.282" x2="28.896" y2="42.014" xlink:href="#K"><stop offset="0"/><stop offset="1" stop-color="#545454"/></linearGradient><radialGradient id="F" gradientTransform="matrix(1.1363636,0,0,1.0989082,-4.8527018,-1.822019)" cx="29.727" cy="27.727" fx="29.727" fy="27.727" r="13.79" xlink:href="#K"><stop offset="0" stop-color="#083de2"/><stop offset=".564" stop-color="#0638d7"/><stop offset="1" stop-color="#041f78"/></radialGradient><linearGradient xlink:href="#A" id="G" x1="25.456" y1="22.471" x2="25.456" y2="31.342"/><filter id="H"><feGaussianBlur stdDeviation=".356"/></filter><linearGradient xlink:href="#A" id="I" x1="23.399" y1="40.856" x2="23.399" y2="31.985"/><filter id="J"><feGaussianBlur stdDeviation=".359"/></filter><linearGradient id="K" gradientUnits="userSpaceOnUse"/></defs><g fill="url(#C)" fill-rule="evenodd" stroke="#000" stroke-width="1.5"><path d="M18.364 4.545h27.364L32.273 30.727 18.364 4.545z"/><path d="M48.455 7.273l13.909 22.818L36 30 48.455 7.273z"/><path d="M15.5 7.227L1.591 30.045l26.182-.091L15.5 7.227z"/><path d="M18.386 59.727H45.75L32.295 33.545 18.386 59.727z"/><path d="M48.477 57l13.909-22.818-26.364.091L48.477 57z"/><path d="M15.523 57.045L1.614 34.227l26.182.091-12.273 22.727z"/></g><path d="M6.169 30.665s13.896-9.328 22.756-9.514 30.148 10.671 30.148 10.671-21.504 9.089-30.47 9.064c-8.902-.025-22.435-10.221-22.435-10.221z" fill="url(#B)" fill-rule="evenodd"/><path d="M 41.090908,27.727272 A 11.363636,10.909091 0 1 1 18.363636,27.727272 A 11.363636,10.909091 0 1 1 41.090908,27.727272 z" transform="matrix(.804553 0 0 .83807 5.840641 5.86809)" clip-path="url(#D)" stroke="url(#F)" stroke-width="5.141"/><path d="M6.685 30.959s13.638-9.745 21.856-10.028 29.441 11.314 29.441 11.314-21.725-9.264-31.113-7.971c-9.372 1.291-20.185 6.685-20.185 6.685z" fill="url(#G)" fill-rule="evenodd" filter="url(#H)"/><path d="M 6.1685442,30.664918 C 6.1685442,30.664918 20.064123,21.337312 28.924527,21.151117 C 37.784931,20.964922 59.072989,31.822002 59.072989,31.822002 C 59.072989,31.822002 37.569472,40.910835 28.603115,40.885825 C 19.70104,40.860995 6.1685442,30.664918 6.1685442,30.664918 z" fill="none" stroke="url(#E)" stroke-width="2"/><path d="M5.014 32.244s14.281-10.517 22.499-10.799 29.184 10.542 29.184 10.542-21.467-8.493-30.856-7.2c-9.372 1.291-20.828 7.457-20.828 7.457z" transform="matrix(1 0 0 -1 2.057038 63.326784)" fill="url(#I)" fill-rule="evenodd" filter="url(#J)"/></svg>